HIERARCHY
ROOT Hips
{
    OFFSET 0.000000 0.000000 0.000000
    CHANNELS 6 Xposition Yposition Zposition Zrotation Xrotation Yrotation
        JOINT Chest
        {
            OFFSET -0.000000 28.502190 -0.000000
            CHANNELS 3 Zrotation Xrotation Yrotation
            JOINT Neck
            {
                OFFSET -0.000000 21.060717 0.000000
                CHANNELS 3 Zrotation Xrotation Yrotation
                JOINT Head
                {
                    OFFSET -0.000000 9.900002 0.000000
                    CHANNELS 3 Zrotation Xrotation Yrotation
                    End Site
                    {
                        OFFSET -0.000000 15.300010 0.000000
                    }
                }
            }
            JOINT LeftCollar
            {
                OFFSET -0.000000 21.060717 0.000000
                CHANNELS 3 Zrotation Xrotation Yrotation
                JOINT LeftShoulder
                {
                    OFFSET 18.000004 -0.000000 0.000000
                    CHANNELS 3 Zrotation Xrotation Yrotation
                    JOINT LeftElbow
                    {
                        OFFSET 21.585543 0.000000 0.000000
                        CHANNELS 3 Zrotation Xrotation Yrotation
                        JOINT LeftWrist
                        {
                            OFFSET 21.310946 0.000000 0.000000
                            CHANNELS 3 Zrotation Xrotation Yrotation
                            End Site
                            {
                                OFFSET 0.000000 -13.500002 0.000000
                            }
                        }
                    }
                }
            }
            JOINT RightCollar
            {
                OFFSET -0.000000 21.060717 0.000000
                CHANNELS 3 Zrotation Xrotation Yrotation
                JOINT RightShoulder
                {
                    OFFSET -18.000004 0.000000 0.000000
                    CHANNELS 3 Zrotation Xrotation Yrotation
                    JOINT RightElbow
                    {
                        OFFSET -21.585543 0.000000 0.000000
                        CHANNELS 3 Zrotation Xrotation Yrotation
                        JOINT RightWrist
                        {
                            OFFSET -21.310946 0.000000 0.000000
                            CHANNELS 3 Zrotation Xrotation Yrotation
                            End Site
                            {
                                OFFSET -0.000000 -13.500002 0.000000
                            }
                        }
                    }
                }
            }
        }
    JOINT LeftHip
    {
        OFFSET 10.800001 0.000000 0.000000
        CHANNELS 3 Zrotation Xrotation Yrotation
        JOINT LeftKnee
        {
            OFFSET -0.000000 -36.918850 0.000000
            CHANNELS 3 Zrotation Xrotation Yrotation
            JOINT LeftAnkle
            {
                OFFSET -0.000000 -34.060452 0.000000
                CHANNELS 3 Zrotation Xrotation Yrotation
                End Site
                {
                    OFFSET -0.000000 -4.500001 15.300010
                }
            }
        }
    }
    JOINT RightHip
    {
        OFFSET -10.800001 0.000000 0.000000
        CHANNELS 3 Zrotation Xrotation Yrotation
        JOINT RightKnee
        {
            OFFSET -0.000000 -36.918850 0.000000
            CHANNELS 3 Zrotation Xrotation Yrotation
            JOINT RightAnkle
            {
                OFFSET -0.000000 -34.060452 0.000000
                CHANNELS 3 Zrotation Xrotation Yrotation
                End Site
                {
                    OFFSET -0.000000 -4.500001 15.300010
                }
            }
        }
    }
}
MOTION
Frames:    16
Frame Time:    0.010000
68.057610    79.627716    -58.448696    6.900856    1.481194    -74.167809    -3.456069    1.144458    3.235436    9.101017    13.665273    14.486071    -27.033855    -28.963863    10.600417    -18.431952    -0.715249    4.406198    -55.345558    25.478109    -7.665172    27.310255    -20.506023    -73.426643    109.415367    6.115025    59.377132    9.940622    -1.289220    -14.355389    13.236047    63.906689    66.753777    -14.192516    -9.424131    66.863022    -105.824341    -9.838237    -41.146133    -4.188362    -16.340088    1.384986    1.120595    5.946091    7.950388    -1.813053    -2.334377    1.871336    -8.664164    -23.353813    4.548195    -5.152450    18.737850    -0.249116    5.599536    -8.017310    10.951836    
68.173668    79.632805    -58.439541    6.850616    1.484330    -74.357056    -3.365714    1.286451    3.462746    9.200160    12.888816    13.648403    -24.790359    -30.722797    7.670854    -18.467909    -0.602006    3.053486    -55.424641    25.951426    -7.545196    27.129238    -20.321787    -73.474113    109.754959    6.391652    59.179508    9.703210    -1.311286    -16.246387    13.188314    63.667572    66.984100    -14.422396    -9.599854    66.423958    -105.073227    -11.533887    -40.729637    -4.181660    -16.324663    1.563894    1.189208    5.893697    8.099253    -1.947612    -2.571239    1.745981    -8.412481    -23.439848    3.781694    -5.660764    19.663837    -0.432039    5.555997    -8.265176    12.084946    
68.294250    79.618141    -58.469807    6.887986    1.535278    -74.489082    -3.391315    1.300290    3.424473    9.088343    12.917310    13.624480    -24.764227    -30.801416    7.727654    -18.310255    -0.530965    3.042849    -55.485363    26.067060    -7.604503    27.260151    -20.503975    -73.370689    109.059273    5.748355    58.730354    9.667635    -1.355432    -16.281549    13.904672    63.616966    66.310028    -14.250346    -9.358081    66.625771    -105.266777    -10.892319    -40.492687    -4.111432    -16.435024    1.378559    1.206419    5.821315    8.683379    -2.711989    -2.675708    1.487708    -8.056372    -23.668383    3.492879    -6.035213    20.922274    0.416424    6.204109    -8.439949    10.871060    
68.384827    79.622322    -58.485382    6.882910    1.549675    -74.594261    -3.404545    1.289526    3.462777    9.093780    12.997698    13.617340    -24.762209    -30.849258    7.722731    -18.282688    -0.495180    3.070610    -55.462120    26.142771    -7.600620    27.327274    -20.545086    -73.343330    108.958626    5.684978    58.596092    9.626956    -1.379258    -16.249601    14.380014    63.664219    65.832184    -14.162913    -9.299525    66.608337    -105.108475    -11.119617    -40.262783    -4.084269    -16.470173    1.359139    1.229175    5.795730    8.826987    -2.823935    -2.773591    1.432912    -7.834235    -23.767120    3.087991    -6.378121    21.727636    0.749490    6.388132    -8.680859    10.860094    
68.484703    79.627739    -58.503319    6.871322    1.561140    -74.704750    -3.416997    1.281510    3.492964    9.093445    13.062483    13.589690    -24.738016    -30.875311    7.697959    -18.247738    -0.521322    3.072632    -55.472160    26.278103    -7.537338    27.415489    -20.614019    -73.324051    108.853111    5.614164    58.422417    9.584966    -1.387623    -16.264786    14.829530    63.689781    65.383018    -14.082874    -9.238986    66.597298    -104.933464    -11.298794    -40.065632    -4.057411    -16.502596    1.339664    1.253021    5.774955    8.930929    -2.902925    -2.879021    1.414533    -7.586247    -23.855051    2.607027    -6.777965    22.626703    1.170901    6.574938    -8.962879    10.847368    
68.589714    79.633156    -58.522449    6.851185    1.567670    -74.814827    -3.430641    1.272756    3.512066    9.091506    13.135958    13.559104    -24.710072    -30.882750    7.679217    -18.216290    -0.480010    3.078929    -55.465046    26.342024    -7.494442    27.358727    -20.555998    -73.336800    108.908524    5.608550    58.212559    9.555769    -1.349958    -16.282700    15.209343    63.675728    64.988426    -13.954062    -9.137983    66.625084    -104.832016    -11.381925    -39.934425    -4.033670    -16.529392    1.322700    1.277833    5.760678    8.990741    -2.947680    -2.985970    1.432443    -7.318322    -23.919102    2.057332    -7.227464    23.590399    1.670376    6.758370    -9.275591    10.837743    
68.696121    79.637505    -58.542233    6.822061    1.568003    -74.919083    -3.445106    1.263261    3.518219    9.089672    13.217682    13.527012    -24.678888    -30.871944    7.664233    -18.183548    -0.498057    3.088443    -55.476444    26.453018    -7.417740    27.411526    -20.583200    -73.360489    108.867317    5.528444    57.914272    9.514717    -1.358573    -16.304991    15.516535    63.714897    64.684097    -13.947886    -9.194351    66.590523    -104.521492    -11.472451    -39.800976    -4.014905    -16.549685    1.309611    1.302898    5.753632    9.009991    -2.959819    -3.087341    1.480066    -7.035615    -23.948332    1.452395    -7.716362    24.589771    2.229639    6.934928    -9.609616    10.838771    
68.800766    79.639961    -58.562744    6.784610    1.561260    -75.013229    -3.460612    1.254084    3.510903    9.088435    13.302658    13.493973    -24.643637    -30.841486    7.655347    -18.154961    -0.476701    3.100232    -55.476563    26.492220    -7.344775    27.307739    -20.497055    -73.440872    109.076180    5.574932    57.625423    9.482649    -1.349186    -16.332741    15.689238    63.743160    64.483025    -13.906829    -9.150498    66.611992    -104.364075    -11.427791    -39.813923    -4.001884    -16.563957    1.301229    1.326869    5.753829    8.997950    -2.944224    -3.175606    1.546362    -6.742228    -23.933966    0.810737    -8.231970    25.598335    2.826842    7.099616    -9.959023    10.858167    
68.901047    79.639839    -58.584587    6.740039    1.547172    -75.094391    -3.477617    1.246736    3.491902    9.089290    13.383635    13.462644    -24.604342    -30.787878    7.654751    -18.123959    -0.514641    3.113664    -55.495049    26.550522    -7.235714    27.223242    -20.471106    -73.567879    109.254402    5.576112    57.237305    9.446485    -1.374288    -16.366018    15.723339    63.809292    64.425827    -13.969278    -9.193347    66.594818    -104.118950    -11.363161    -39.889290    -3.993914    -16.573162    1.298702    1.347818    5.760598    8.964849    -2.908119    -3.244555    1.620137    -6.440893    -23.869280    0.154979    -8.759192    26.593811    3.438388    7.249314    -10.320672    10.903652    
68.995110    79.636696    -58.608704    6.689733    1.525731    -75.161446    -3.496072    1.242516    3.466282    9.094241    13.451705    13.434857    -24.560158    -30.705721    7.665323    -18.096651    -0.478837    3.128889    -55.490559    26.495758    -7.161153    26.996853    -20.282816    -73.741920    109.587097    5.649314    56.833698    9.431666    -1.349313    -16.401999    15.581566    63.824028    64.511444    -13.883756    -9.129907    66.662209    -104.200874    -11.153109    -40.102177    -3.989419    -16.578291    1.303795    1.363804    5.772776    8.919206    -2.860538    -3.290153    1.691990    -6.132850    -23.749090    -0.489488    -9.280988    27.558231    4.037050    7.388121    -10.691586    10.985775    
69.082474    79.630280    -58.636433    6.635743    1.496927    -75.214645    -3.515624    1.241824    3.440828    9.104712    13.493157    13.408473    -24.508663    -30.585678    7.686728    -18.064087    -0.525583    3.141145    -55.514290    26.486582    -7.052642    26.810947    -20.226805    -73.963951    109.869034    5.690496    56.362942    9.409066    -1.371819    -16.447369    15.319324    63.874962    64.742195    -13.945612    -9.200828    66.662422    -104.070732    -11.006369    -40.311424    -3.986925    -16.581390    1.314368    1.373264    5.789476    8.870307    -2.811068    -3.310898    1.755999    -5.817806    -23.570219    -1.098137    -9.780217    28.479956    4.595117    7.525564    -11.069764    11.118798    
69.164391    79.620651    -58.669483    6.582542    1.460570    -75.255432    -3.537779    1.240045    3.421856    9.121112    13.503565    13.385768    -24.448215    -30.423071    7.722539    -18.035975    -0.479736    3.154478    -55.514137    26.354160    -6.995749    26.489862    -19.982378    -74.203835    110.252617    5.782783    55.896748    9.407085    -1.350605    -16.494999    14.924874    63.867065    65.070763    -13.841432    -9.120081    66.768578    -104.361702    -10.688691    -40.703552    -3.986020    -16.587494    1.324422    1.375392    5.810018    8.826651    -2.769015    -3.307400    1.810489    -5.494266    -23.333437    -1.651749    -10.242433    29.355301    5.094008    7.671674    -11.458340    11.312929    
69.243156    79.608093    -58.709549    6.535705    1.416457    -75.285553    -3.564311    1.230475    3.413263    9.141427    13.477139    13.362671    -24.374002    -30.214563    7.769181    -18.003820    -0.497773    3.164588    -55.540428    26.274656    -6.929970    26.240730    -19.898027    -74.458015    110.517372    5.813065    55.392204    9.402087    -1.369757    -16.551956    14.458434    63.877880    65.489120    -13.813345    -9.142361    66.841797    -104.539452    -10.400676    -41.105804    -3.987366    -16.602930    1.323843    1.370451    5.834016    8.796473    -2.742766    -3.282497    1.856952    -5.161054    -23.042290    -2.137674    -10.655493    30.185261    5.528533    7.835907    -11.864263    11.566774    
69.320831    79.593018    -58.757771    6.500079    1.364317    -75.306671    -3.597496    1.204789    3.415939    9.160742    13.421438    13.340247    -24.282658    -29.966503    7.827394    -17.971954    -0.524027    3.178140    -55.581894    26.180479    -6.858294    25.974350    -19.773479    -74.689903    110.766731    5.847201    54.934181    9.407290    -1.391946    -16.609083    13.950523    63.871269    65.923866    -13.718674    -9.065758    66.982712    -104.930794    -10.012088    -41.649117    -3.992066    -16.632490    1.303611    1.359246    5.860878    8.784636    -2.738051    -3.241045    1.898097    -4.818849    -22.701674    -2.548797    -11.008589    30.970022    5.904682    8.028860    -12.292948    11.866564    
69.398842    79.575966    -58.814548    6.478564    1.304330    -75.320450    -3.638563    1.156289    3.429410    9.173737    13.348968    13.318648    -24.172527    -29.691217    7.894618    -17.945314    -0.502730    3.200405    -55.614582    26.051891    -6.833894    25.701498    -19.623123    -74.882172    110.954437    5.852509    54.513798    9.436953    -1.371607    -16.658529    13.420196    63.804932    66.353088    -13.511923    -8.891603    67.206154    -105.514000    -9.537287    -42.276699    -4.000735    -16.678787    1.258165    1.342877    5.890419    8.794263    -2.755115    -3.189302    1.934395    -4.470131    -22.317501    -2.883103    -11.292733    31.706491    6.231996    8.260861    -12.744129    12.195838    
69.478203    79.557678    -58.879845    6.472168    1.236541    -75.329056    -3.688069    1.081162    3.453733    9.175527    13.270439    13.294635    -24.043333    -29.401108    7.965330    -17.920729    -0.521162    3.231514    -55.664379    25.982697    -6.811637    25.526730    -19.596008    -75.028282    111.003510    5.801403    54.138828    9.462518    -1.399915    -16.700207    12.939605    63.773487    66.746323    -13.366690    -8.829298    67.404076    -105.985504    -9.086393    -42.881290    -4.013460    -16.742781    1.186971    1.322109    5.923224    8.827750    -2.788032    -3.133863    1.962586    -4.118838    -21.896955    -3.142575    -11.503061    32.388233    6.515121    8.537276    -13.210830    12.548329    
